<svg width="46" height="46" viewBox="0 0 46 46" fill="none" xmlns="http://www.w3.org/2000/svg">
    <path
        d="M21.1667 21.1666L21.267 21.1177C21.5804 20.9611 21.9322 20.8976 22.2806 20.9347C22.629 20.9719 22.9595 21.1081 23.2329 21.3272C23.5063 21.5463 23.7112 21.8392 23.8233 22.1712C23.9354 22.5032 23.95 22.8603 23.8654 23.2004L22.1347 30.1328C22.0495 30.473 22.0637 30.8305 22.1756 31.1629C22.2874 31.4953 22.4922 31.7886 22.7657 32.0081C23.0393 32.2276 23.37 32.364 23.7187 32.4012C24.0675 32.4384 24.4195 32.3748 24.7332 32.2179L24.8334 32.1666M23.0001 13.8333H23.0196V13.8528H23.0001V13.8333Z"
        stroke="#6366f1" stroke-width="2.8" />
    <path
        d="M23 45C35.1503 45 45 35.1503 45 23C45 10.8497 35.1503 1 23 1C10.8497 1 1 10.8497 1 23C1 35.1503 10.8497 45 23 45Z"
        stroke="#6366f1" stroke-width="2" />
    <mask id="mask0_14_1959" style="mask-type:luminance" maskUnits="userSpaceOnUse" x="-1" y="-1" width="48"
        height="48">
        <path
            d="M23 45C35.1503 45 45 35.1503 45 23C45 10.8497 35.1503 1 23 1C10.8497 1 1 10.8497 1 23C1 35.1503 10.8497 45 23 45Z"
            stroke="#6366f1" stroke-width="4" />
    </mask>
    <g mask="url(#mask0_14_1959)">
    </g>
</svg>